# xmcd
#
# Track frame offsets:
#	150
#	10725
#	22685
#	33757
#	49408
#	60999
#	72892
#	83018
#	93051
#	107122
#	116510
#	130266
#	141639
#
# Disc length: 2055 seconds
#
# Revision: 0
# Processed by: cddbd v1.5.2PL0 Copyright (c) Steve Scherf et al.
# Submitted via: EZCDAudioConverter 1.1.0.1
#
DISCID=9e08050d
DTITLE=Atomic Blast - Hypnosis
DYEAR=2012
DGENRE=
TTITLE0=Astralfant
TTITLE1=Cosmic Fantasy V
TTITLE2=Crazy Crazy Lightyears
TTITLE3=Hypnophobia
TTITLE4=Space Patrol
TTITLE5=The Amazing Hypno-Bear (on the unicycle)
TTITLE6=Demolition Derby
TTITLE7=Digging My Grave
TTITLE8=Slavedriver
TTITLE9=Colt 45
TTITLE10=Drink That Blood, Senor???
TTITLE11=Ride the Rocket, Senor???
TTITLE12=Shin-Ökubo
EXTD=
EXTT0=
EXTT1=
EXTT2=
EXTT3=
EXTT4=
EXTT5=
EXTT6=
EXTT7=
EXTT8=
EXTT9=
EXTT10=
EXTT11=
EXTT12=
PLAYORDER=
